<svg width="110" height="31" viewBox="0 0 110 31" fill="none" xmlns="http://www.w3.org/2000/svg">
<path d="M8 30.6667C6.88889 30.6667 5.94444 30.2778 5.16667 29.5C4.38889 28.7222 4 27.7778 4 26.6667C4 25.5556 4.38889 24.6111 5.16667 23.8333C5.94444 23.0556 6.88889 22.6667 8 22.6667C8.31111 22.6667 8.6 22.7 8.86667 22.7667C9.13333 22.8333 9.38889 22.9222 9.63333 23.0333L11.5333 20.6667C10.9111 19.9778 10.4778 19.2 10.2333 18.3333C9.98889 17.4667 9.93333 16.6 10.0667 15.7333L7.36667 14.8333C6.98889 15.3889 6.51111 15.8333 5.93333 16.1667C5.35556 16.5 4.71111 16.6667 4 16.6667C2.88889 16.6667 1.94444 16.2778 1.16667 15.5C0.388889 14.7222 0 13.7778 0 12.6667C0 11.5556 0.388889 10.6111 1.16667 9.83333C1.94444 9.05556 2.88889 8.66667 4 8.66667C5.11111 8.66667 6.05556 9.05556 6.83333 9.83333C7.61111 10.6111 8 11.5556 8 12.6667C8 12.7111 8 12.7556 8 12.8C8 12.8444 8 12.8889 8 12.9333L10.7 13.8667C11.1444 13.0667 11.7389 12.3889 12.4833 11.8333C13.2278 11.2778 14.0667 10.9222 15 10.7667V7.86667C14.1333 7.62222 13.4167 7.15 12.85 6.45C12.2833 5.75 12 4.93333 12 4C12 2.88889 12.3889 1.94444 13.1667 1.16667C13.9444 0.388889 14.8889 0 16 0C17.1111 0 18.0556 0.388889 18.8333 1.16667C19.6111 1.94444 20 2.88889 20 4C20 4.93333 19.7111 5.75 19.1333 6.45C18.5556 7.15 17.8444 7.62222 17 7.86667V10.7667C17.9333 10.9222 18.7722 11.2778 19.5167 11.8333C20.2611 12.3889 20.8556 13.0667 21.3 13.8667L24 12.9333C24 12.8889 24 12.8444 24 12.8C24 12.7556 24 12.7111 24 12.6667C24 11.5556 24.3889 10.6111 25.1667 9.83333C25.9444 9.05556 26.8889 8.66667 28 8.66667C29.1111 8.66667 30.0556 9.05556 30.8333 9.83333C31.6111 10.6111 32 11.5556 32 12.6667C32 13.7778 31.6111 14.7222 30.8333 15.5C30.0556 16.2778 29.1111 16.6667 28 16.6667C27.2889 16.6667 26.6389 16.5 26.05 16.1667C25.4611 15.8333 24.9889 15.3889 24.6333 14.8333L21.9333 15.7333C22.0667 16.6 22.0111 17.4611 21.7667 18.3167C21.5222 19.1722 21.0889 19.9556 20.4667 20.6667L22.3667 23C22.6111 22.8889 22.8667 22.8056 23.1333 22.75C23.4 22.6944 23.6889 22.6667 24 22.6667C25.1111 22.6667 26.0556 23.0556 26.8333 23.8333C27.6111 24.6111 28 25.5556 28 26.6667C28 27.7778 27.6111 28.7222 26.8333 29.5C26.0556 30.2778 25.1111 30.6667 24 30.6667C22.8889 30.6667 21.9444 30.2778 21.1667 29.5C20.3889 28.7222 20 27.7778 20 26.6667C20 26.2222 20.0722 25.7944 20.2167 25.3833C20.3611 24.9722 20.5556 24.6 20.8 24.2667L18.9 21.9C17.9889 22.4111 17.0167 22.6667 15.9833 22.6667C14.95 22.6667 13.9778 22.4111 13.0667 21.9L11.2 24.2667C11.4444 24.6 11.6389 24.9722 11.7833 25.3833C11.9278 25.7944 12 26.2222 12 26.6667C12 27.7778 11.6111 28.7222 10.8333 29.5C10.0556 30.2778 9.11111 30.6667 8 30.6667V30.6667" fill="#57F1DB"/>
<path d="M40.48 22.3333V8.13333H50.276V10.6894H41.832L43.5201 8.94533V15.4533L41.832 14.1293H49.916V16.6574H41.832L43.5201 15.3333V22.3333H40.48ZM56.248 22.5733C55.152 22.5733 54.1987 22.3427 53.388 21.8813C52.5773 21.42 51.9493 20.7687 51.504 19.9273C51.0587 19.086 50.836 18.1013 50.836 16.9733C50.836 15.8453 51.0587 14.864 51.504 14.0293C51.9493 13.1947 52.5747 12.5433 53.38 12.0753C54.1853 11.6073 55.1307 11.3733 56.216 11.3733C57.28 11.3733 58.2074 11.606 58.998 12.0713C59.7887 12.5367 60.3987 13.2027 60.8281 14.0693C61.2574 14.936 61.4721 15.9707 61.4721 17.1733V17.7813H53.9401C53.9827 18.6267 54.2141 19.258 54.6341 19.6753C55.0541 20.0926 55.608 20.3013 56.296 20.3013C56.8054 20.3013 57.2313 20.192 57.574 19.9733C57.9167 19.7546 58.1587 19.4266 58.3 18.9893L61.3241 19.1653C61.0361 20.24 60.4401 21.0767 59.5361 21.6753C58.632 22.274 57.536 22.5733 56.248 22.5733ZM53.9401 15.9413H58.408C58.368 15.1547 58.1493 14.5673 57.752 14.1794C57.3547 13.7914 56.8427 13.5974 56.216 13.5974C55.5947 13.5974 55.0807 13.8014 54.6741 14.2094C54.2674 14.6173 54.0227 15.1947 53.9401 15.9413ZM66.632 22.5733C65.728 22.5733 64.9473 22.3447 64.29 21.8873C63.6327 21.43 63.126 20.782 62.77 19.9433C62.414 19.1047 62.236 18.1147 62.236 16.9733C62.236 15.832 62.416 14.842 62.776 14.0033C63.136 13.1647 63.6467 12.5167 64.308 12.0593C64.9693 11.602 65.744 11.3733 66.632 11.3733C67.3947 11.3733 68.0533 11.5293 68.608 11.8413C69.1627 12.1533 69.5827 12.5867 69.868 13.1413V8.13333H72.8681V22.3333H69.992L69.932 20.7573C69.6386 21.3307 69.202 21.7767 68.622 22.0953C68.042 22.414 67.3787 22.5733 66.632 22.5733ZM67.62 20.2653C68.1027 20.2653 68.5107 20.1413 68.844 19.8933C69.1773 19.6453 69.4313 19.2766 69.606 18.7873C69.7807 18.298 69.868 17.6933 69.868 16.9733C69.868 16.2427 69.7807 15.634 69.606 15.1473C69.4313 14.6607 69.1773 14.2947 68.844 14.0494C68.5107 13.804 68.1027 13.6814 67.62 13.6814C66.9187 13.6814 66.3614 13.9754 65.9481 14.5634C65.5347 15.1513 65.3281 15.9547 65.3281 16.9733C65.3281 17.9706 65.5367 18.7686 65.9541 19.3673C66.3714 19.966 66.9267 20.2653 67.62 20.2653ZM74.88 22.3333V8.13333H78.9361L82.552 18.4732L86.16 8.13333H90.2161V22.3333H87.176V13.1334L83.836 22.2973H81.248L77.9201 13.1334V22.3333H74.88ZM92.4 22.3333V8.13333H98.62C99.66 8.13333 100.562 8.30666 101.326 8.65333C102.09 8.99999 102.681 9.49066 103.098 10.1253C103.515 10.76 103.724 11.5093 103.724 12.3733C103.724 13.0293 103.588 13.6113 103.316 14.1193C103.044 14.6273 102.671 15.04 102.196 15.3573C101.721 15.6747 101.179 15.8747 100.568 15.9573L100.496 15.7653C101.443 15.7653 102.164 15.9713 102.66 16.3833C103.156 16.7953 103.436 17.4213 103.5 18.2613L103.852 22.3333H100.756L100.492 18.7414C100.455 18.1947 100.287 17.7914 99.988 17.5314C99.6893 17.2714 99.1826 17.1414 98.468 17.1414H95.4401V22.3333H92.4ZM95.4401 14.5853H98.276C99.0147 14.5853 99.5873 14.4153 99.994 14.0753C100.401 13.7353 100.604 13.2547 100.604 12.6333C100.604 11.9987 100.398 11.516 99.986 11.1854C99.574 10.8547 98.9747 10.6894 98.188 10.6894H95.4401V14.5853ZM105.84 22.3333V8.13333H108.88V22.3333H105.84Z" fill="#57F1DB"/>
</svg>
